<svg width="109" height="32" viewBox="0 0 109 32" fill="none" xmlns="http://www.w3.org/2000/svg">
    <path
        d="M30.8794 31.583C29.1942 31.583 27.6902 31.2417 26.3676 30.5591C25.0663 29.8551 24.0424 28.8845 23.2957 27.6472C22.5491 26.4099 22.1758 25.0126 22.1758 23.4554C22.1758 21.8981 22.5384 20.5115 23.2637 19.2955C24.0104 18.0583 25.013 17.0876 26.2716 16.3837C27.5302 15.6797 28.9488 15.3277 30.5274 15.3277C32.0634 15.3277 33.418 15.6584 34.5913 16.3197C35.7646 16.981 36.6819 17.8983 37.3432 19.0715C38.0258 20.2448 38.3671 21.5888 38.3671 23.1034C38.3671 23.3807 38.3458 23.6794 38.3031 23.9993C38.2818 24.298 38.2285 24.65 38.1431 25.0553L24.7357 25.0873V21.7274L36.0632 21.6954L33.9513 23.1034C33.93 22.2074 33.7913 21.4714 33.5353 20.8955C33.2793 20.2982 32.8953 19.8502 32.3834 19.5515C31.8927 19.2315 31.2847 19.0715 30.5594 19.0715C29.7915 19.0715 29.1195 19.2529 28.5435 19.6155C27.9889 19.9568 27.5516 20.4475 27.2316 21.0875C26.9329 21.7274 26.7836 22.5061 26.7836 23.4234C26.7836 24.3407 26.9436 25.13 27.2636 25.7913C27.6049 26.4312 28.0742 26.9326 28.6715 27.2952C29.2902 27.6365 30.0155 27.8072 30.8474 27.8072C31.6154 27.8072 32.3087 27.6792 32.9273 27.4232C33.546 27.1459 34.09 26.7406 34.5593 26.2073L37.2472 28.8951C36.4792 29.7911 35.5512 30.4631 34.4633 30.9111C33.3753 31.359 32.1807 31.583 30.8794 31.583Z"
        fill="#030A05" />
    <path
        d="M46.394 31.615C45.4767 31.615 44.5701 31.4977 43.6741 31.263C42.7995 31.0284 41.9782 30.6977 41.2103 30.2711C40.4636 29.8231 39.8236 29.3111 39.2903 28.7351L42.0742 25.9193C42.5862 26.4739 43.1942 26.9112 43.8981 27.2312C44.6021 27.5299 45.3701 27.6792 46.202 27.6792C46.778 27.6792 47.2153 27.5939 47.514 27.4232C47.834 27.2525 47.994 27.0179 47.994 26.7192C47.994 26.3352 47.802 26.0473 47.418 25.8553C47.0553 25.6419 46.586 25.4606 46.0101 25.3113C45.4341 25.1406 44.8261 24.9593 44.1861 24.7673C43.5462 24.5753 42.9382 24.3087 42.3622 23.9673C41.7862 23.626 41.3169 23.1567 40.9543 22.5594C40.5916 21.9408 40.4103 21.1621 40.4103 20.2235C40.4103 19.2209 40.6663 18.3569 41.1783 17.6316C41.6902 16.885 42.4155 16.2983 43.3542 15.8717C44.2928 15.445 45.3914 15.2317 46.65 15.2317C47.9726 15.2317 49.1886 15.4664 50.2979 15.9357C51.4285 16.3837 52.3458 17.0556 53.0498 17.9516L50.2659 20.7675C49.7752 20.1915 49.2206 19.7862 48.6019 19.5515C48.0046 19.3169 47.418 19.1995 46.842 19.1995C46.2874 19.1995 45.8714 19.2849 45.5941 19.4555C45.3167 19.6049 45.1781 19.8288 45.1781 20.1275C45.1781 20.4475 45.3594 20.7035 45.7221 20.8955C46.0847 21.0875 46.554 21.2581 47.13 21.4074C47.706 21.5568 48.314 21.7381 48.9539 21.9514C49.5939 22.1648 50.2019 22.4527 50.7779 22.8154C51.3538 23.178 51.8231 23.6687 52.1858 24.2873C52.5485 24.8846 52.7298 25.6739 52.7298 26.6552C52.7298 28.1698 52.1538 29.3751 51.0018 30.2711C49.8712 31.167 48.3353 31.615 46.394 31.615Z"
        fill="#030A05" />
    <path
        d="M65.6575 31.231V22.3674C65.6575 21.5568 65.4015 20.9061 64.8895 20.4155C64.3989 19.9035 63.7696 19.6475 63.0016 19.6475C62.4683 19.6475 61.999 19.7649 61.5937 19.9995C61.1883 20.2128 60.8684 20.5328 60.6337 20.9595C60.399 21.3648 60.2817 21.8341 60.2817 22.3674L58.3938 21.4394C58.3938 20.2235 58.6498 19.1569 59.1618 18.2396C59.6737 17.3223 60.3884 16.6183 61.3057 16.1277C62.223 15.6157 63.2789 15.3597 64.4735 15.3597C65.6895 15.3597 66.7561 15.6157 67.6734 16.1277C68.5907 16.6183 69.2947 17.3116 69.7853 18.2076C70.2973 19.0822 70.5533 20.1062 70.5533 21.2795V31.231H65.6575ZM55.3859 31.231V8H60.2817V31.231H55.3859Z"
        fill="#030A05" />
    <path
        d="M80.1934 31.551C78.7641 31.551 77.4842 31.199 76.3536 30.4951C75.2443 29.7911 74.359 28.8311 73.6977 27.6152C73.0577 26.3992 72.7377 25.0126 72.7377 23.4554C72.7377 21.8981 73.0577 20.5115 73.6977 19.2955C74.359 18.0796 75.2443 17.1196 76.3536 16.4157C77.4842 15.7117 78.7641 15.3597 80.1934 15.3597C81.2387 15.3597 82.1773 15.5624 83.0093 15.9677C83.8626 16.373 84.5559 16.9383 85.0892 17.6636C85.6225 18.3676 85.9212 19.1782 85.9852 20.0955V26.8152C85.9212 27.7325 85.6225 28.5538 85.0892 29.2791C84.5772 29.9831 83.8946 30.5377 83.0413 30.9431C82.188 31.3484 81.2387 31.551 80.1934 31.551ZM81.1854 27.1352C82.2306 27.1352 83.0733 26.7939 83.7132 26.1113C84.3532 25.4073 84.6732 24.522 84.6732 23.4554C84.6732 22.7301 84.5239 22.0901 84.2252 21.5354C83.9479 20.9808 83.5426 20.5541 83.0093 20.2555C82.4973 19.9355 81.9 19.7755 81.2174 19.7755C80.5347 19.7755 79.9267 19.9355 79.3934 20.2555C78.8814 20.5541 78.4655 20.9808 78.1455 21.5354C77.8468 22.0901 77.6975 22.7301 77.6975 23.4554C77.6975 24.1593 77.8468 24.7886 78.1455 25.3433C78.4441 25.8979 78.8601 26.3352 79.3934 26.6552C79.9267 26.9752 80.5241 27.1352 81.1854 27.1352ZM84.4812 31.231V27.0392L85.2172 23.2634L84.4812 19.4875V15.6797H89.281V31.231H84.4812Z"
        fill="#030A05" />
    <path
        d="M102.68 31.231L97.2399 23.1674L102.648 15.6797H108.119L101.592 24.0953L101.752 22.0794L108.439 31.231H102.68ZM92.7281 31.231V8H97.6239V31.231H92.7281Z"
        fill="#030A05" />
    <path fill-rule="evenodd" clip-rule="evenodd"
        d="M9.22132 6.95068V11.4676C9.22132 12.3973 9.22231 12.3973 10.2018 12.4206C14.9144 12.5307 19.2123 15.9025 20.0914 20.178C21.1355 25.2507 17.9713 30.1938 12.7645 31.6242C7.24042 33.1423 1.45783 29.9234 0.0527046 24.5457C0.0298328 24.4572 0.0258551 24.3639 0 24.1802C1.53838 23.6394 3.03201 23.1144 4.5674 22.5754C4.63105 22.7134 4.69966 22.8076 4.71756 22.9102C5.20085 25.6983 7.92857 27.6211 10.8442 27.2238C13.7569 26.8266 15.7348 24.2744 15.346 21.4163C15.0397 19.1709 12.6521 17.2416 10.0835 17.1847C8.98564 17.1605 7.88581 17.1884 6.78696 17.1735C5.49321 17.1558 4.38542 16.241 4.34863 14.985C4.28101 12.6845 4.32973 10.3804 4.32973 8.01558C5.94369 7.66403 7.53577 7.31808 9.22132 6.95068Z"
        fill="#030A05" />
    <path fill-rule="evenodd" clip-rule="evenodd"
        d="M9.32578 0V4.2568C7.69989 4.60181 6.02329 4.95802 4.29199 5.32542V1.04718C5.93876 0.704959 7.59747 0.359939 9.32578 0Z"
        fill="#35B555" />
</svg>